<svg xmlns="http://www.w3.org/2000/svg" width="23.488" height="20.841" viewBox="0 0 23.488 20.841">
  <path id="cart" d="M2.133,273.453a.529.529,0,0,0-.122,1.047l1.979.435.508,2.42v.005l2.522,11.42a.529.529,0,0,0,.517.415H21.819a.529.529,0,1,0,0-1.058H7.963l-.487-2.2H22.54a.529.529,0,0,0,.517-.415l1.8-8.157a.529.529,0,0,0-.517-.643q-9.449,0-18.9,0l-.49-2.331a.529.529,0,0,0-.4-.408l-2.312-.507a.529.529,0,0,0-.1-.014Zm3.54,4.319q9,0,18.009,0l-1.568,7.1H7.242Zm5.25,12.54a1.889,1.889,0,1,0,1.885,1.889,1.895,1.895,0,0,0-1.885-1.889Zm7.59,0A1.889,1.889,0,1,0,20.4,292.2,1.895,1.895,0,0,0,18.513,290.312Zm-7.59,1.058a.83.83,0,1,1-.826.83A.82.82,0,0,1,10.923,291.37Zm7.59,0a.83.83,0,1,1-.826.83A.82.82,0,0,1,18.513,291.37Z" transform="translate(-1.485 -273.349)" stroke="#0f1112" stroke-width="0.2"/>
</svg>
