<svg xmlns="http://www.w3.org/2000/svg" width="110.059" height="112.824" viewBox="0 0 110.059 112.824">
  <g id="Group_196" data-name="Group 196" transform="translate(-2.667 -2.951)">
    <circle id="Ellipse_18" data-name="Ellipse 18" cx="9.597" cy="9.597" r="9.597" transform="translate(7.146 2.951)" fill="#fff"/>
    <circle id="Ellipse_19" data-name="Ellipse 19" cx="9.597" cy="9.597" r="9.597" transform="translate(86.491 2.951)" fill="#fff"/>
    <path id="Path_126" data-name="Path 126" d="M57.622,56.729a5.1,5.1,0,0,0,1.779-.32,71.269,71.269,0,0,0,13.794-6.447v2.927a8.887,8.887,0,0,0,.092,1.217L68.1,104.768a5.759,5.759,0,0,0,11.458,1.172l3.1-30.257,4.681,30.541a5.76,5.76,0,0,0,5.684,4.888,5.88,5.88,0,0,0,.88-.068,5.761,5.761,0,0,0,4.82-6.566L91.01,54.162a8.9,8.9,0,0,0,.1-1.275V28.574a8.957,8.957,0,1,0-17.915,0v7.881c-3.477,4.492-8.979,7.25-17.352,10.352a5.12,5.12,0,0,0,1.777,9.921Z" transform="translate(13.936 4.66)" fill="#fff"/>
    <path id="Path_127" data-name="Path 127" d="M33.821,32.2,32.17,30.55a12.423,12.423,0,0,1,1.932-.32v1.292Z" transform="translate(8.25 7.628)" fill="#fff"/>
    <path id="Path_128" data-name="Path 128" d="M31.7,30.82l4.236,4.236v7H29.13V35.068A4.261,4.261,0,0,1,31.7,30.82Z" transform="translate(7.4 7.793)" fill="#fff"/>
    <rect id="Rectangle_191" data-name="Rectangle 191" width="0.742" height="0.819" transform="translate(43.594 37.794)" fill="#fff"/>
    <path id="Path_129" data-name="Path 129" d="M36.078,32.686l-.947.947L34.21,32.7l.371-.909h1.152Z" transform="translate(8.821 8.064)" fill="#fff"/>
    <path id="Path_130" data-name="Path 130" d="M36.484,32.162l-.294-.717V30.23a1.89,1.89,0,0,1,.269.013c.064.013.128.013.2.026.218.026.435.051.64.09a.544.544,0,0,1,.141.026c.218.038.422.077.614.128.026,0,.038.013.051.013Z" transform="translate(9.374 7.628)" fill="#fff"/>
    <path id="Path_131" data-name="Path 131" d="M39.643,30.81l-2.687,2.674a.28.28,0,0,1-.038.064l-1.5,1.5v7.012h6.808l.013-6.974A4.287,4.287,0,0,0,39.643,30.81Zm1.075,6.629H38.363a.614.614,0,0,1,0-1.228h2.355a.614.614,0,0,1,0,1.228Z" transform="translate(9.159 7.79)" fill="#fff"/>
    <path id="Path_132" data-name="Path 132" d="M54.176,24.534H33.267A2.66,2.66,0,0,0,30.605,27.2v16.61a19.256,19.256,0,0,1-4.9-4.671V28.577a8.957,8.957,0,0,0-17.915,0V52.891a9.916,9.916,0,0,0,.09,1.228L2.7,104.767a5.759,5.759,0,0,0,5.144,6.309,4.544,4.544,0,0,0,.589.038,5.764,5.764,0,0,0,5.72-5.17l3.1-30.263,4.683,30.545a5.756,5.756,0,0,0,5.682,4.888,6.831,6.831,0,0,0,.883-.064,5.763,5.763,0,0,0,4.811-6.565L25.6,54.145a8.154,8.154,0,0,0,.1-1.254V52.8a33.046,33.046,0,0,0,17.7,5.208,5.117,5.117,0,0,0,5.119-5.119,5.171,5.171,0,0,0-.473-2.137h6.129a2.657,2.657,0,0,0,2.649-2.662V27.2A2.657,2.657,0,0,0,54.176,24.534Zm-1.548,21.28a.623.623,0,0,1-.614.614h-16.1a.625.625,0,0,1-.627-.614v-7.6c0-3.826,2.431-5.925,7.192-6.27l.154-.013c.23-.013.473-.026.7-.026V30.356a.617.617,0,0,1,.627-.614.934.934,0,1,0-.934-.934.621.621,0,0,1-1.241,0,2.2,2.2,0,0,1,1.548-2.086,2.17,2.17,0,1,1,1.241,4.159V31.9c.2,0,.422.013.614.026l.5.038c.218.013.422.038.627.064l.55.077a3.274,3.274,0,0,1,.346.064c.4.077.793.179,1.177.294.064.026.115.038.179.064.09.026.2.051.307.09a1.4,1.4,0,0,1,.141.077,5.463,5.463,0,0,1,3.609,5.515Z" transform="translate(0 4.661)" fill="#fff"/>
  </g>
</svg>
