<svg id="Group_192" data-name="Group 192" xmlns="http://www.w3.org/2000/svg" width="30.181" height="30.255" viewBox="0 0 30.181 30.255">
  <path id="Path_63" data-name="Path 63" d="M745.975,399.325l2.169-8.093a14.975,14.975,0,1,1,5.965,5.914Zm8.539-5.212.513.305a12.158,12.158,0,1,0-4.16-4.122l.314.516-1.211,4.518Z" transform="translate(-745.975 -369.07)" fill="#0f1112"/>
  <path id="Path_64" data-name="Path 64" d="M769.73,388.58a2.83,2.83,0,0,0-2.408-.543c-.625.256-1.025,1.235-1.43,1.736a.6.6,0,0,1-.775.167,10.911,10.911,0,0,1-5.443-4.661.668.668,0,0,1,.085-.912,3.67,3.67,0,0,0,.988-1.6,3.513,3.513,0,0,0-.442-1.9,4.506,4.506,0,0,0-1.4-2.114,1.923,1.923,0,0,0-2.087.31,4.24,4.24,0,0,0-1.469,3.358,4.78,4.78,0,0,0,.132,1.065,8.844,8.844,0,0,0,1.022,2.355,18.8,18.8,0,0,0,1.067,1.622,16.455,16.455,0,0,0,4.628,4.3,13.992,13.992,0,0,0,2.885,1.373,6.413,6.413,0,0,0,3.359.53,4.07,4.07,0,0,0,3.046-2.266,1.965,1.965,0,0,0,.14-1.156C771.452,389.44,770.373,388.966,769.73,388.58Z" transform="translate(-748.189 -371.358)" fill="#0f1112" fill-rule="evenodd"/>
</svg>
