<svg xmlns="http://www.w3.org/2000/svg" xmlns:xlink="http://www.w3.org/1999/xlink" width="147.424" height="118.762" xmlns:v="https://vecta.io/nano"><g fill="#fff"><path d="M146.167 14.29c-13.577 0-24.624 11.877-24.624 26.477v16.027c0 12.926-9.5 23.465-21.33 23.909v-65.43a5.1 5.1 0 0 0-5.092-5.092h-7.182V4.332A4.46 4.46 0 0 0 83.376 0H62.418c-2.455-.06-4.495 1.877-4.563 4.332v5.848h-6.322a5.1 5.1 0 0 0-5.092 5.092v70.324a5.1 5.1 0 0 0 5.092 5.091h6.322v5.964a4.46 4.46 0 0 0 4.563 4.332h20.958c2.455.06 4.495-1.877 4.563-4.332v-5.964h7.177a5.1 5.1 0 0 0 5.092-5.091v-2.368c13.22-.442 23.859-12.114 23.859-26.434V40.767c0-13.207 9.91-23.948 22.1-23.948.697 0 1.262-.565 1.262-1.263s-.565-1.262-1.262-1.262zM97.684 40.977v4.525H48.967v-4.525zm-48.717-2.525v-4.524h48.717v4.524zm48.718 9.575v4.524H48.967v-4.524zm0 7.049v4.523H48.967v-4.524zm0 7.049v4.524H48.967v-4.53zm0-30.72H48.967v-4.526h48.717zM48.967 69.171h48.717v4.525H48.967zm48.717-44.816H48.967v-4.524h48.717zM48.967 76.219h48.717v4.524H48.967zM60.379 4.332c.069-1.06.979-1.866 2.039-1.808h20.958c1.061-.059 1.97.748 2.039 1.808v5.848H60.379zm-8.846 8.373h43.583a2.57 2.57 0 0 1 2.568 2.568v2.032H48.967v-2.032a2.57 2.57 0 0 1 2.566-2.568zm33.881 83.946c-.069 1.06-.979 1.866-2.039 1.808H62.418c-1.061.059-1.97-.748-2.039-1.808v-5.964h25.035v5.964zm9.7-8.489H51.533a2.57 2.57 0 0 1-2.566-2.566V83.27h48.717v2.326a2.57 2.57 0 0 1-2.568 2.566z"/><path d="M47.941 19.239h50v6h-50zm0 14h50v6h-50zm1 14h50v6h-50zm0 14h50v6h-50zm-1 14h50v6h-50zm12 14h26v10h-26zm0-87h26v10h-26zm-48.478 104.02a1 1 0 0 1-1.488 1.083c-.227-.134-.39-.356-.449-.613a.99.99 0 0 1 .115-.755.96.96 0 0 1 .618-.449.85.85 0 0 1 .235-.033 1.02 1.02 0 0 1 .514.148c.229.136.393.36.455.619zm1.944-5.641c-3.093-.001-5.881 1.861-7.065 4.718s-.53 6.146 1.657 8.333 5.476 2.841 8.333 1.657 4.719-3.973 4.718-7.065a7.65 7.65 0 0 0-7.642-7.642zm-1.127 6.964a2.09 2.09 0 0 1-1.789 1 2.06 2.06 0 0 1-1.083-.306 2.09 2.09 0 0 1 2.172-3.572 2.06 2.06 0 0 1 .946 1.3c.131.538.042 1.105-.246 1.578zm5.821 3.545c-.38.624-1.059 1.003-1.789 1a2.09 2.09 0 0 1-1.783-3.178 2.09 2.09 0 0 1 2.852-.661c.972.593 1.292 1.854.72 2.838zm-1.264-1.937c-.156-.097-.336-.148-.52-.148a1.15 1.15 0 0 0-.235.027 1.03 1.03 0 0 0-.618.449 1 1 0 1 0 1.373-.328zm-8.888 8.036a10.42 10.42 0 0 0 5.438 1.535 10.58 10.58 0 0 0 2.5-.3 10.49 10.49 0 1 0-7.933-1.235zM5.38 103.378a9.4 9.4 0 1 1-1.106 7.107 9.4 9.4 0 0 1 1.106-7.107z"/><path d="M9.146 115.26a8.19 8.19 0 0 0 8.515-13.993 8.19 8.19 0 0 0-11.254 2.739c-1.145 1.852-1.499 4.085-.985 6.2s1.856 3.936 3.724 5.054zm-1.8-10.685a7.05 7.05 0 0 1 4.385-3.2 7.14 7.14 0 0 1 1.688-.2 7.1 7.1 0 0 1 3.466 13.292 7.1 7.1 0 0 1-9.539-9.884z"/><use xlink:href="#B"/><path d="M31.948 84.931c-3.093-.001-5.881 1.861-7.065 4.718s-.53 6.146 1.657 8.333 5.476 2.841 8.333 1.657 4.719-3.973 4.718-7.065a7.65 7.65 0 0 0-7.642-7.642zm-1.127 6.964a2.09 2.09 0 0 1-1.789 1 2.06 2.06 0 0 1-1.083-.306 2.09 2.09 0 0 1 2.172-3.572 2.06 2.06 0 0 1 .946 1.3c.131.538.042 1.105-.246 1.578zm5.821 3.545c-.38.624-1.059 1.003-1.789 1a2.09 2.09 0 0 1-1.783-3.178 2.09 2.09 0 0 1 2.852-.661c.972.593 1.292 1.854.72 2.838zm-1.264-1.933c-.156-.097-.336-.148-.52-.148a1.15 1.15 0 0 0-.235.027 1.03 1.03 0 0 0-.618.449 1 1 0 1 0 1.373-.328zm-8.888 8.032a10.42 10.42 0 0 0 5.438 1.535 10.58 10.58 0 0 0 2.5-.3 10.49 10.49 0 1 0-7.933-1.235zm-2.569-13.848a9.4 9.4 0 1 1-1.106 7.107 9.4 9.4 0 0 1 1.106-7.107z"/><path d="M27.687 99.574a8.19 8.19 0 0 0 12.22-8.927 8.19 8.19 0 0 0-14.953-2.328c-1.146 1.851-1.501 4.084-.988 6.199s1.854 3.936 3.721 5.056zm-1.8-10.685a7.05 7.05 0 0 1 4.385-3.2 7.14 7.14 0 0 1 1.688-.2 7.1 7.1 0 0 1 3.466 13.292 7.1 7.1 0 0 1-9.539-9.884z"/><use xlink:href="#B" x="-21.455" y="-6.837"/><path d="M10.497 78.093c-3.093-.001-5.881 1.861-7.065 4.718s-.53 6.146 1.657 8.333 5.476 2.841 8.333 1.657 4.719-3.973 4.718-7.065a7.65 7.65 0 0 0-7.642-7.642zM9.37 85.057a2.09 2.09 0 0 1-1.789 1 2.06 2.06 0 0 1-1.083-.306 2.09 2.09 0 1 1 2.172-3.572 2.06 2.06 0 0 1 .946 1.3c.131.538.042 1.105-.246 1.578zm5.821 3.545c-.38.624-1.059 1.003-1.789 1a2.09 2.09 0 0 1-1.783-3.178 2.09 2.09 0 0 1 2.852-.661c.972.593 1.292 1.854.72 2.838zm-1.264-1.932c-.156-.097-.336-.148-.52-.148a1.15 1.15 0 0 0-.235.027 1.03 1.03 0 0 0-.618.449 1 1 0 1 0 1.373-.328zm-8.888 8.031a10.42 10.42 0 0 0 5.438 1.535 10.58 10.58 0 0 0 2.5-.3 10.49 10.49 0 1 0-12.328-13.8 10.49 10.49 0 0 0 4.395 12.565zM2.47 80.853a9.4 9.4 0 1 1-1.106 7.107 9.4 9.4 0 0 1 1.106-7.107z"/><path d="M6.236 92.736a8.19 8.19 0 0 0 12.219-8.928 8.19 8.19 0 0 0-14.953-2.327c-1.145 1.851-1.501 4.084-.987 6.199s1.854 3.936 3.721 5.056zm-1.8-10.685a7.05 7.05 0 0 1 4.385-3.2 7.14 7.14 0 0 1 1.688-.2 7.1 7.1 0 0 1 3.466 13.292 7.1 7.1 0 0 1-9.539-9.884z"/></g><defs ><path id="B" d="M30.01 90.572a1 1 0 0 1-1.488 1.083c-.227-.134-.39-.356-.449-.613a.99.99 0 0 1 .115-.755.96.96 0 0 1 .618-.449.84.84 0 0 1 .235-.033 1.02 1.02 0 0 1 .514.148c.229.136.393.36.455.619z"/></defs></svg>