<svg xmlns="http://www.w3.org/2000/svg" width="131.843" height="123.604" viewBox="0 0 131.843 123.604">
  <g id="how_products_icon_3" transform="translate(-0.997 -2.5)">
    <g id="Group_124" data-name="Group 124" transform="translate(0.997 2.5)">
      <path id="Path_111" data-name="Path 111" d="M23,55.289l12.909-1.1V44.577c0-5.768-.275-10.437.824-15.106S41.68,17.386,45.8,10.52c-13.458,2.2-26.916,2.2-40.1-4.12V47.324H7.073A20.154,20.154,0,0,1,23,55.289Z" transform="translate(7.217 4.312)" fill="#fff"/>
      <path id="Path_112" data-name="Path 112" d="M31.193,9.751,25.7,55.618l8.514-.824c19.775-4.669,37.353-7.69,55.48.824V10.025C70.194.412,50.694,4.807,31.193,9.751Z" transform="translate(42.148 0.686)" fill="#fff"/>
      <path id="Path_113" data-name="Path 113" d="M69.669,2.5S52.915,28.043,50.443,37.931c-1.648,6.866,0,16.2-1.1,28.564L27.922,68.417A14.223,14.223,0,0,0,15.013,59.9,13.723,13.723,0,0,0,1.005,73.91,14.066,14.066,0,0,0,15.013,87.918a14.478,14.478,0,0,0,12.634-7.69c2.747-.275,7.965-.824,14.557-1.373a4.849,4.849,0,0,1,5.218,5.493c-.824,6.592-1.373,12.085-1.648,14.831a15.189,15.189,0,0,0-7.416,9.064,13.786,13.786,0,0,0-.549,3.3,14.151,14.151,0,1,0,28.29.824,13.671,13.671,0,0,0-8.24-13.183l2.747-21.7c12.359-.824,21.7,1.1,28.564-.275,9.888-2.2,35.705-18.4,35.705-18.4l-62.9,6.042ZM15.013,84.073A10.139,10.139,0,0,1,4.851,73.91,10.319,10.319,0,0,1,15.013,63.748a10.162,10.162,0,1,1,0,20.324Zm46.966,28.29a10.327,10.327,0,0,1-10.437,9.888,10.514,10.514,0,0,1-9.888-10.437,10.327,10.327,0,0,1,10.437-9.888A10.115,10.115,0,0,1,61.979,112.362ZM58.134,74.734a4.467,4.467,0,1,1,0-6.317A4.654,4.654,0,0,1,58.134,74.734Z" transform="translate(-0.997 -2.5)" fill="#fff"/>
      <path id="Path_114" data-name="Path 114" d="M20.424,27.524a2.719,2.719,0,1,0,3.845,0A2.655,2.655,0,0,0,20.424,27.524Z" transform="translate(31.495 39.767)" fill="#fff"/>
    </g>
  </g>
</svg>
