<svg xmlns="http://www.w3.org/2000/svg" width="430.667" height="32.606" viewBox="0 0 430.667 32.606">
  <g id="logo" transform="translate(-523.126 -277.441)">
    <g id="Group_65" data-name="Group 65" transform="translate(920.498 277.588)">
      <g id="Group_63" data-name="Group 63" transform="translate(0 0)">
        <path id="Path_38" data-name="Path 38" d="M1954.321,310.111,1941.668,286l-.242-.463-3.816-7.271a.566.566,0,0,0-.5-.3h-4.524a.564.564,0,0,0-.471.874l6.123,9.079.279.415,14.181,21.027a1.683,1.683,0,0,0,.77.623l.711.285A.112.112,0,0,0,1954.321,310.111Zm-15.572-25.463-.1.065a.39.39,0,0,1-.538-.118l-.637-1-.273-.426-1.117-1.746a.388.388,0,0,1,.118-.536l.1-.068a.392.392,0,0,1,.539.118l1.077,1.687.277.434.671,1.049A.389.389,0,0,1,1938.749,284.647Z" transform="translate(-1932.019 -277.963)"/>
      </g>
      <g id="Group_64" data-name="Group 64" transform="translate(1.85 0)">
        <path id="Path_39" data-name="Path 39" d="M1960.328,277.963H1955.8a.566.566,0,0,0-.5.3l-3.816,7.271-.243.463-12.653,24.109a.113.113,0,0,0,.144.155l.711-.285a1.685,1.685,0,0,0,.77-.623l14.181-21.027.279-.415,6.124-9.079A.564.564,0,0,0,1960.328,277.963Zm-3.5,3.461-1.117,1.746-.274.426-.637,1a.391.391,0,0,1-.539.118l-.1-.065a.389.389,0,0,1-.118-.539l.671-1.049.276-.434,1.077-1.687a.392.392,0,0,1,.539-.118l.1.068A.388.388,0,0,1,1956.831,281.424Z" transform="translate(-1938.578 -277.963)"/>
      </g>
      <path id="Path_40" data-name="Path 40" d="M2000.234,289.489s6.991-2.44,9.025-1.31c1.985,1.1,1.653,2.823,0,6.68s-2.283,8.5,4.486,7.871" transform="translate(-1980.994 -285.083)" fill="none" stroke="#000" stroke-linecap="round" stroke-miterlimit="10" stroke-width="1"/>
    </g>
    <path id="Path_41" data-name="Path 41" d="M1850.811,376.223" transform="translate(-953.218 -70.921)"/>
    <g id="Group_68" data-name="Group 68" transform="translate(523.126 277.441)">
      <path id="Path_42" data-name="Path 42" d="M548.691,278.142a.838.838,0,0,0-.613-.249h-1.584a.85.85,0,0,0-.862.862v24.137h-.09l-20.425-25.451h-1.132a.87.87,0,0,0-.611.226.758.758,0,0,0-.249.589v30.478a.851.851,0,0,0,.86.86h1.585a.85.85,0,0,0,.86-.86V284.1h.045l20.787,25.949h.815a.884.884,0,0,0,.613-.226.76.76,0,0,0,.249-.589V278.754A.837.837,0,0,0,548.691,278.142Z" transform="translate(-523.126 -277.441)"/>
      <path id="Path_43" data-name="Path 43" d="M938.387,288.711a15.906,15.906,0,0,0-3.42-5.027,16.288,16.288,0,0,0-5.072-3.4,15.425,15.425,0,0,0-6.159-1.247H913.592a.761.761,0,0,0-.589.249.877.877,0,0,0-.226.613v29.979a.868.868,0,0,0,.226.611.756.756,0,0,0,.589.249h10.144a15.424,15.424,0,0,0,6.159-1.245,16.209,16.209,0,0,0,5.072-3.4,15.79,15.79,0,0,0,3.42-5.049,15.538,15.538,0,0,0,1.245-6.2A15.273,15.273,0,0,0,938.387,288.711Zm-3.51,11.278a11.92,11.92,0,0,1-2.673,4.031,12.275,12.275,0,0,1-4.076,2.648,13.533,13.533,0,0,1-5.117.951h-6.793v-25.5h6.793a13.533,13.533,0,0,1,5.117.951A12.464,12.464,0,0,1,932.2,285.7a11.635,11.635,0,0,1,2.673,4.031,14.306,14.306,0,0,1,0,10.258Z" transform="translate(-802.878 -278.59)"/>
      <path id="Path_44" data-name="Path 44" d="M1092.072,307.959a.835.835,0,0,0-.611-.249h-13.044V279.9a.85.85,0,0,0-.86-.862h-1.766a.85.85,0,0,0-.86.862v29.979a.85.85,0,0,0,.86.86h15.67a.85.85,0,0,0,.86-.86V308.57A.832.832,0,0,0,1092.072,307.959Z" transform="translate(-919.297 -278.59)"/>
      <path id="Path_45" data-name="Path 45" d="M1222.49,282.077a.851.851,0,0,0,.86-.86V279.9a.851.851,0,0,0-.86-.862h-17.843a.85.85,0,0,0-.86.862v29.979a.85.85,0,0,0,.86.86h17.843a.851.851,0,0,0,.86-.86V308.57a.851.851,0,0,0-.86-.86h-15.217V296.162h13a.853.853,0,0,0,.861-.861v-1.313a.852.852,0,0,0-.861-.86h-13v-11.05Z" transform="translate(-1011.81 -278.59)"/>
      <path id="Path_46" data-name="Path 46" d="M1374.3,308.508l-5.842-30.434a.782.782,0,0,0-.815-.633h-.724a.736.736,0,0,0-.77.5l-8.832,24.953h-.226l-8.967-24.953a.736.736,0,0,0-.77-.5h-.724a.78.78,0,0,0-.5.181.95.95,0,0,0-.317.452l-5.842,30.434a1.021,1.021,0,0,0,.113.792.792.792,0,0,0,.7.294h1.811a.814.814,0,0,0,.521-.2.777.777,0,0,0,.294-.43l3.94-23.324h.181l8.424,23.912a.728.728,0,0,0,.317.362.865.865,0,0,0,.453.136h.815a.871.871,0,0,0,.453-.136.739.739,0,0,0,.317-.362l8.333-23.912h.181l4.031,23.324a1.174,1.174,0,0,0,.317.43.726.726,0,0,0,.5.2h1.811a.794.794,0,0,0,.7-.294A1.029,1.029,0,0,0,1374.3,308.508Z" transform="translate(-1109.566 -277.441)"/>
      <path id="Path_47" data-name="Path 47" d="M1727.278,295.351a.763.763,0,0,0-.589-.249h-7.834a.761.761,0,0,0-.86.862v1.675a.758.758,0,0,0,.249.589.874.874,0,0,0,.611.226h5.208v6.34a13.772,13.772,0,0,1-2.22.951,18.918,18.918,0,0,1-2.535.656,17.68,17.68,0,0,1-3.4.3,11.776,11.776,0,0,1-4.982-1.064,12.862,12.862,0,0,1-6.657-7.021,13.343,13.343,0,0,1-.951-5,13.216,13.216,0,0,1,3.6-9.126,12.621,12.621,0,0,1,4.008-2.829,11.979,11.979,0,0,1,4.982-1.042,11.44,11.44,0,0,1,4.6,1,14.9,14.9,0,0,1,4.008,2.537,1.136,1.136,0,0,0,.611.385c.166.016.354-.1.566-.34a8.355,8.355,0,0,1,.611-.634c.227-.21.446-.422.658-.634a.8.8,0,0,0,.249-.634.952.952,0,0,0-.3-.633,18.761,18.761,0,0,0-4.913-3.1,15.333,15.333,0,0,0-6.047-1.109,15.938,15.938,0,0,0-6.385,1.29,16.246,16.246,0,0,0-8.673,8.673,16.374,16.374,0,0,0,0,12.748,16.561,16.561,0,0,0,3.486,5.163,16.334,16.334,0,0,0,11.571,4.732,21.02,21.02,0,0,0,4.506-.453,23.442,23.442,0,0,0,3.556-1.041,15.8,15.8,0,0,0,3.125-1.494.861.861,0,0,0,.362-.725v-10.37A.886.886,0,0,0,1727.278,295.351Z" transform="translate(-1367.785 -277.441)"/>
      <path id="Path_48" data-name="Path 48" d="M1868.6,279.291a.832.832,0,0,0-.611-.249h-1.811a.85.85,0,0,0-.86.862v29.979a.85.85,0,0,0,.86.86h1.811a.85.85,0,0,0,.86-.86V279.9A.838.838,0,0,0,1868.6,279.291Z" transform="translate(-1486.756 -278.59)"/>
      <g id="Group_66" data-name="Group 66" transform="translate(44.694 0.452)">
        <path id="Path_49" data-name="Path 49" d="M699.249,279.291a.73.73,0,0,0-.558-.249H682.374a.727.727,0,0,0-.558.249.876.876,0,0,0-.227.613v1.811a.874.874,0,0,0,.227.611.727.727,0,0,0,.558.249h16.317a.73.73,0,0,0,.558-.249.876.876,0,0,0,.227-.611V279.9A.877.877,0,0,0,699.249,279.291Z" transform="translate(-681.589 -279.042)"/>
        <path id="Path_50" data-name="Path 50" d="M699.249,329.23a.73.73,0,0,0-.558-.249H682.374a.728.728,0,0,0-.558.249.876.876,0,0,0-.227.613v1.811a.874.874,0,0,0,.227.611.727.727,0,0,0,.558.249h16.317a.73.73,0,0,0,.558-.249.875.875,0,0,0,.227-.611v-1.811A.877.877,0,0,0,699.249,329.23Z" transform="translate(-681.589 -314.896)"/>
        <path id="Path_51" data-name="Path 51" d="M800.08,329.23a.731.731,0,0,0-.558-.249H783.2a.728.728,0,0,0-.558.249.876.876,0,0,0-.227.613v1.811a.874.874,0,0,0,.227.611.727.727,0,0,0,.558.249h16.317a.73.73,0,0,0,.558-.249.876.876,0,0,0,.227-.611v-1.811A.878.878,0,0,0,800.08,329.23Z" transform="translate(-753.981 -314.896)"/>
        <path id="Path_52" data-name="Path 52" d="M800.08,379.168a.73.73,0,0,0-.558-.249H783.2a.727.727,0,0,0-.558.249.876.876,0,0,0-.227.613v1.811a.875.875,0,0,0,.227.611.728.728,0,0,0,.558.249h16.317a.731.731,0,0,0,.558-.249.876.876,0,0,0,.227-.611v-1.811A.877.877,0,0,0,800.08,379.168Z" transform="translate(-753.981 -350.749)"/>
      </g>
      <g id="Group_67" data-name="Group 67" transform="translate(283.585 0.285)">
        <path id="Path_53" data-name="Path 53" d="M1529.456,310.348a.838.838,0,0,1-.741-.359.747.747,0,0,1-.022-.809l13.657-30.234a.78.78,0,0,1,.764-.494h.449a.838.838,0,0,1,.764.494l13.567,30.234a.75.75,0,0,1-.023.809.839.839,0,0,1-.741.359h-1.8a.72.72,0,0,1-.494-.157,1.1,1.1,0,0,1-.27-.337l-3.325-7.412H1535.3l-3.28,7.412a1.121,1.121,0,0,1-.27.337.723.723,0,0,1-.494.157Zm20.575-10.692q-1.662-3.683-3.28-7.368t-3.279-7.368h-.359l-6.559,14.735Z" transform="translate(-1528.585 -278.452)"/>
      </g>
    </g>
  </g>
</svg>
