<svg xmlns="http://www.w3.org/2000/svg" width="117.539" height="114.629" viewBox="0 0 117.539 114.629">
  <g id="noun_Phone_1995579" transform="translate(-0.519 -4.588)">
    <g id="Group_194" data-name="Group 194" transform="translate(0.519 4.588)">
      <path id="Path_116" data-name="Path 116" d="M52.859,73.728a9.913,9.913,0,0,0-13.915-2.685l-5.127,3.54a2.767,2.767,0,0,1-3.54-.488A84.831,84.831,0,0,1,14.043,37.475,2.816,2.816,0,0,1,16,34.424l6.1-1.465a10.1,10.1,0,0,0,7.324-12.206L25.517,5.739A7.78,7.78,0,0,0,15.02.612h0C-1.337,7.692-4.877,35.4,7.086,62.254S42,105.1,58.23,97.9a7.731,7.731,0,0,0,3.3-11.23Z" transform="translate(0 20.433) rotate(-19)" fill="#fff"/>
      <path id="Path_117" data-name="Path 117" d="M74.587,7.5C54.812,7.5,38.7,18.852,38.7,32.767c0,6.836,3.906,13.061,10.253,17.7a47.837,47.837,0,0,1-5.615,10.62,2.5,2.5,0,0,0,2.685,3.906,69.372,69.372,0,0,0,17.943-8.056,48.57,48.57,0,0,0,10.5,1.1c19.774,0,35.887-11.352,35.887-25.267S94.361,7.5,74.587,7.5ZM57.5,37.65a5,5,0,0,1,0-10.009,5.027,5.027,0,0,1,5,5A4.95,4.95,0,0,1,57.5,37.65Zm17.089,0a5,5,0,1,1,5-5A4.95,4.95,0,0,1,74.587,37.65Zm17.089,0a5.027,5.027,0,0,1-5-5,5,5,0,1,1,10.009,0A5.027,5.027,0,0,1,91.676,37.65Z" transform="translate(7.188 -5.003)" fill="#fff"/>
    </g>
  </g>
</svg>
