<svg xmlns="http://www.w3.org/2000/svg" width="134.161" height="51.553" viewBox="0 0 134.161 51.553">
  <g id="noun_Measurement_Tape_4081183" data-name="noun_Measurement Tape_4081183" transform="translate(-16.999 -164.159)">
    <path id="Path_118" data-name="Path 118" d="M27.242,177.789c.042.007.082.019.122.028,1.469.35,3.146.7,5.061,1.048,10.612,1.921,24.738,2.978,39.777,2.978s29.165-1.058,39.776-2.978c15.25-2.76,15.426-5.833,15.426-5.864s-.177-3.1-15.426-5.864c-10.611-1.921-24.737-2.978-39.776-2.978s-29.165,1.058-39.777,2.978C17.176,169.9,17,172.972,17,173S17.136,175.364,27.242,177.789ZM54,168.372A107.436,107.436,0,0,1,72.2,167a107.436,107.436,0,0,1,18.2,1.369c5.941,1.075,8.59,2.5,8.59,4.631s-2.649,3.555-8.59,4.631A107.47,107.47,0,0,1,72.2,179,107.47,107.47,0,0,1,54,177.635c-5.941-1.076-8.589-2.5-8.589-4.631S48.059,169.447,54,168.372Z" transform="translate(-0.001 0)" fill="#fff"/>
    <path id="Path_119" data-name="Path 119" d="M152.729,190.675a109.344,109.344,0,0,0,16.688-1.151c4.817-.779,6.529-1.644,7.094-2.042-.565-.4-2.278-1.263-7.094-2.042a109.452,109.452,0,0,0-16.688-1.151,109.346,109.346,0,0,0-16.688,1.151c-4.817.779-6.529,1.645-7.094,2.042.565.4,2.278,1.263,7.094,2.042A109.346,109.346,0,0,0,152.729,190.675Z" transform="translate(-80.527 -14.48)" fill="#fff"/>
    <rect id="Rectangle_190" data-name="Rectangle 190" width="9.75" height="31.059" transform="translate(141.41 184.652)" fill="#fff"/>
    <path id="Path_120" data-name="Path 120" d="M352.772,214.731h16.164v-4.856c-2.816,1.808-7.766,3.342-14.926,4.639C353.6,214.587,353.189,214.66,352.772,214.731Z" transform="translate(-241.531 -32.885)" fill="#fff"/>
    <path id="Path_121" data-name="Path 121" d="M131.992,224.84a1.4,1.4,0,0,1-2.807,0v-7.3h-6.61v16.714a1.4,1.4,0,1,1-2.807,0V217.542h-6.612v7.3a1.4,1.4,0,1,1-2.807,0v-7.3h-6.61v16.715a1.4,1.4,0,0,1-2.807,0V217.542h-6.61v7.3a1.4,1.4,0,1,1-2.807,0v-7.3H84.906v16.715a1.4,1.4,0,1,1-2.807,0V217.542H75.489v7.3a1.4,1.4,0,0,1-2.807,0v-7.3H72.2q-3.094,0-6.13-.059V233.26a1.4,1.4,0,0,1-2.807,0V217.415q-3.359-.1-6.611-.262v8.055a1.4,1.4,0,0,1-2.807,0V217q-3.389-.209-6.611-.494V232a1.4,1.4,0,0,1-2.807,0V216.235c-2.291-.233-4.5-.5-6.61-.786v6.879a1.4,1.4,0,1,1-2.807,0v-7.29q-1.587-.248-3.087-.52c-1.242-.225-2.414-.457-3.524-.7v16.041a1.4,1.4,0,0,1-2.807,0v-16.7a30.361,30.361,0,0,1-8.6-3.284v29.877c0,.031.176,3.1,15.426,5.864C43.037,247.543,57.163,248.6,72.2,248.6h66.4V217.542h-6.611Z" transform="translate(0 -32.889)" fill="#fff"/>
  </g>
</svg>
