<svg xmlns="http://www.w3.org/2000/svg" width="25.965" height="25.965" viewBox="0 0 25.965 25.965">
  <g id="product_close" transform="translate(-1822.738 -9551.738)">
    <g id="Path_115" data-name="Path 115" transform="translate(1822.738 9551.738)" fill="rgba(255,255,255,0.4)">
      <path d="M12.982,0A12.982,12.982,0,1,1,0,12.982,12.982,12.982,0,0,1,12.982,0Z" stroke="none"/>
      <path d="M 12.982421875 1.000001907348633 C 9.781801223754883 1.000001907348633 6.77275276184082 2.246391296386719 4.509571075439453 4.509571075439453 C 2.246391296386719 6.77275276184082 1.000001907348633 9.781801223754883 1.000001907348633 12.982421875 C 1.000001907348633 16.18304061889648 2.246391296386719 19.19209289550781 4.509571075439453 21.45527267456055 C 6.77275276184082 23.71845245361328 9.781801223754883 24.96484184265137 12.982421875 24.96484184265137 C 16.18304061889648 24.96484184265137 19.19209289550781 23.71845245361328 21.45527267456055 21.45527267456055 C 23.71845245361328 19.19209289550781 24.96484184265137 16.18304061889648 24.96484184265137 12.982421875 C 24.96484184265137 9.781801223754883 23.71845245361328 6.77275276184082 21.45527267456055 4.509571075439453 C 19.19209289550781 2.246391296386719 16.18304061889648 1.000001907348633 12.982421875 1.000001907348633 M 12.982421875 1.9073486328125e-06 C 20.15241241455078 1.9073486328125e-06 25.96484184265137 5.812431335449219 25.96484184265137 12.982421875 C 25.96484184265137 20.15241241455078 20.15241241455078 25.96484184265137 12.982421875 25.96484184265137 C 5.812431335449219 25.96484184265137 1.9073486328125e-06 20.15241241455078 1.9073486328125e-06 12.982421875 C 1.9073486328125e-06 5.812431335449219 5.812431335449219 1.9073486328125e-06 12.982421875 1.9073486328125e-06 Z" stroke="none" fill="rgba(15,17,18,0.4)"/>
    </g>
    <g id="Group_74" data-name="Group 74" transform="translate(1831.641 9560.641)">
      <line id="Line_7" data-name="Line 7" x2="11.54" transform="translate(0 8.16) rotate(-45)" fill="none" stroke="#0f1112" stroke-linecap="round" stroke-width="1"/>
      <line id="Line_18" data-name="Line 18" x2="11.54" transform="translate(0 0) rotate(45)" fill="none" stroke="#0f1112" stroke-linecap="round" stroke-width="1"/>
    </g>
  </g>
</svg>
