<svg xmlns="http://www.w3.org/2000/svg" width="84.656" height="81.91" viewBox="0 0 84.656 81.91">
  <g id="trusted_logo" transform="translate(-1932.018 -277.963)">
    <g id="Group_12" data-name="Group 12" transform="translate(1932.018 277.963)">
      <path id="Path_20" data-name="Path 20" d="M1988.555,359.457,1956.48,298.34l-.614-1.173-9.675-18.432a1.434,1.434,0,0,0-1.272-.772h-11.469a1.429,1.429,0,0,0-1.193,2.216l15.522,23.016.708,1.051,35.95,53.3a4.27,4.27,0,0,0,1.952,1.58l1.8.722A.285.285,0,0,0,1988.555,359.457Zm-39.474-64.549-.258.164a.99.99,0,0,1-1.365-.3l-1.616-2.531-.693-1.08-2.832-4.426a.984.984,0,0,1,.3-1.358l.264-.172a.994.994,0,0,1,1.366.3l2.73,4.276.7,1.1,1.7,2.66A.988.988,0,0,1,1949.081,294.908Z" transform="translate(-1932.018 -277.963)" fill="#566773"/>
    </g>
    <g id="Group_13" data-name="Group 13" transform="translate(1936.708 277.963)">
      <path id="Path_21" data-name="Path 21" d="M1993.715,277.963h-11.469a1.434,1.434,0,0,0-1.273.772l-9.673,18.432-.615,1.173-32.074,61.117a.285.285,0,0,0,.365.393l1.8-.722a4.273,4.273,0,0,0,1.952-1.58l35.949-53.3.708-1.051,15.522-23.016A1.429,1.429,0,0,0,1993.715,277.963Zm-8.866,8.773-2.831,4.426-.693,1.08-1.616,2.531a.991.991,0,0,1-1.366.3l-.257-.164a.987.987,0,0,1-.3-1.366l1.7-2.66.7-1.1,2.731-4.276a.994.994,0,0,1,1.366-.3l.264.172A.983.983,0,0,1,1984.849,286.736Z" transform="translate(-1938.578 -277.963)" fill="#566773"/>
    </g>
    <path id="Path_22" data-name="Path 22" d="M2000.234,291.959s17.723-6.185,22.877-3.322c5.033,2.8,4.19,7.156,0,16.934s-5.786,21.549,11.373,19.953" transform="translate(-19.443 -2.827)" fill="none" stroke="#566773" stroke-linecap="round" stroke-miterlimit="10" stroke-width="3"/>
  </g>
</svg>
