<svg xmlns="http://www.w3.org/2000/svg" width="19.96" height="20.232" viewBox="0 0 19.96 20.232">
  <g id="user" transform="translate(-6.27 -6.92)">
    <path id="user-2" data-name="user" d="M18.335,16.065A5.19,5.19,0,0,0,16.25,6.12h0a5.192,5.192,0,0,0-3.671,8.864,5.14,5.14,0,0,0,1.587,1.081,9.8,9.8,0,0,0-7.7,9.558.327.327,0,0,0,.33.33H25.7a.327.327,0,0,0,.33-.33A9.784,9.784,0,0,0,18.335,16.065Zm-6.607-4.752a4.527,4.527,0,1,1,1.326,3.2A4.532,4.532,0,0,1,11.728,11.313ZM7.141,25.289a9.119,9.119,0,0,1,18.226,0Z" transform="translate(0 1)" stroke="#0f1112" stroke-width="0.4"/>
  </g>
</svg>
